<svg xmlns="http://www.w3.org/2000/svg" width="48" height="48" viewBox="0 0 48 48">
  <g id="グループ_152" data-name="グループ 152" transform="translate(-237 -958)">
    <rect id="長方形_61" data-name="長方形 61" width="48" height="48" rx="24" transform="translate(237 958)" fill="#202123"/>
    <g id="パス_5" data-name="パス 5" transform="translate(243.128 964.128)" fill="none">
      <path d="M17.975,0A17.975,17.975,0,1,1,0,17.975,17.975,17.975,0,0,1,17.975,0Z" stroke="none"/>
      <path d="M 17.97500228881836 1.000003814697266 C 13.4408130645752 1.000003814697266 9.178022384643555 2.765712738037109 5.97186279296875 5.97186279296875 C 2.765712738037109 9.178022384643555 1.000003814697266 13.4408130645752 1.000003814697266 17.97500228881836 C 1.000003814697266 22.50919342041016 2.765712738037109 26.77198219299316 5.97186279296875 29.97814178466797 C 9.178022384643555 33.18429183959961 13.4408130645752 34.95000076293945 17.97500228881836 34.95000076293945 C 22.50919342041016 34.95000076293945 26.77198219299316 33.18429183959961 29.97814178466797 29.97814178466797 C 33.18429183959961 26.77198219299316 34.95000076293945 22.50919342041016 34.95000076293945 17.97500228881836 C 34.95000076293945 13.4408130645752 33.18429183959961 9.178022384643555 29.97814178466797 5.97186279296875 C 26.77198219299316 2.765712738037109 22.50919342041016 1.000003814697266 17.97500228881836 1.000003814697266 M 17.97500228881836 3.814697265625e-06 C 27.90232086181641 3.814697265625e-06 35.95000076293945 8.04768180847168 35.95000076293945 17.97500228881836 C 35.95000076293945 27.90232086181641 27.90232086181641 35.95000076293945 17.97500228881836 35.95000076293945 C 8.04768180847168 35.95000076293945 3.814697265625e-06 27.90232086181641 3.814697265625e-06 17.97500228881836 C 3.814697265625e-06 8.04768180847168 8.04768180847168 3.814697265625e-06 17.97500228881836 3.814697265625e-06 Z" stroke="none" fill="#e8eaed"/>
    </g>
    <g id="楕円形_15" data-name="楕円形 15" transform="translate(252 973)" fill="#f95145" stroke="#e8eaed" stroke-width="1">
      <circle cx="9" cy="9" r="9" stroke="none"/>
      <circle cx="9" cy="9" r="8.5" fill="none"/>
    </g>
    <g id="楕円形_21" data-name="楕円形 21" transform="translate(252 981)" fill="none" stroke="#e8eaed" stroke-width="1">
      <circle cx="9" cy="9" r="9" stroke="none"/>
      <circle cx="9" cy="9" r="8.5" fill="none"/>
    </g>
    <g id="楕円形_22" data-name="楕円形 22" transform="translate(252 964)" fill="none" stroke="#e8eaed" stroke-width="1">
      <circle cx="9" cy="9" r="9" stroke="none"/>
      <circle cx="9" cy="9" r="8.5" fill="none"/>
    </g>
    <g id="楕円形_23" data-name="楕円形 23" transform="translate(261 973)" fill="none" stroke="#e8eaed" stroke-width="1">
      <circle cx="9" cy="9" r="9" stroke="none"/>
      <circle cx="9" cy="9" r="8.5" fill="none"/>
    </g>
    <g id="楕円形_20" data-name="楕円形 20" transform="translate(243 973)" fill="none" stroke="#e8eaed" stroke-width="1">
      <circle cx="9" cy="9" r="9" stroke="none"/>
      <circle cx="9" cy="9" r="8.5" fill="none"/>
    </g>
  </g>
</svg>
