<svg xmlns="http://www.w3.org/2000/svg" width="144" height="144" viewBox="0 0 144 144">
  <g id="グループ_22798" data-name="グループ 22798" transform="translate(-492 -2637)">
    <rect id="長方形_8449" data-name="長方形 8449" width="144" height="144" rx="8" transform="translate(492 2637)" fill="#202123"/>
    <path id="パス_80648" data-name="パス 80648" d="M12.6,150.98q-5.88,0-9.24-2.8A9.329,9.329,0,0,1,0,140.62a8.771,8.771,0,0,1,1.12-4.55,8.261,8.261,0,0,1,2.87-2.94,7.1,7.1,0,0,1,3.71-1.05,7.208,7.208,0,0,0,3.01,4.62,10.258,10.258,0,0,0,5.81,1.54,14.528,14.528,0,0,0,7.7-1.96,16.077,16.077,0,0,0,5.53-6.09,44.988,44.988,0,0,0,3.99-10.71q.84-2.94,1.68-7.14t1.68-8.75q.84-4.55,1.33-8.61a58.06,58.06,0,0,0,.49-6.72q0-5.32-1.47-7.84a6.884,6.884,0,0,0-3.92-3.29A18.415,18.415,0,0,0,28,76.36H19.46v-1.4h70.7v1.4H88.48a17.09,17.09,0,0,0-4.34.63,7.726,7.726,0,0,0-3.99,2.52q-1.61,1.89-1.61,5.95V139.5q0,3.92,1.61,5.88a7.563,7.563,0,0,0,3.99,2.59,17.091,17.091,0,0,0,4.34.63h1.68V150H46.34v-1.4h1.68a14.106,14.106,0,0,0,4.06-.63,7.253,7.253,0,0,0,3.64-2.59q1.54-1.96,1.54-5.88V76.36H41.44q-.42,8.96-1.33,16.45T38.15,106.6q-1.05,6.3-2.38,11.69T33.18,128.3a57.2,57.2,0,0,1-5.32,13.51,18.838,18.838,0,0,1-6.65,7.07,17.179,17.179,0,0,1-8.61,2.1Z" transform="translate(518 2599)" fill="#e8eaed"/>
  </g>
</svg>
